<svg version="1.1" id="Layer_1" xmlns="http://www.w3.org/2000/svg" xmlns:xlink="http://www.w3.org/1999/xlink" x="0px" y="0px" width="100%" viewBox="0 0 512 512" enable-background="new 0 0 512 512" xml:space="preserve">
	<path fill="#fff" opacity="1.000000" stroke="none" d="
	M119.889374,285.749451 
		C117.664917,272.021423 116.191864,258.761444 117.506187,245.154831 
		C121.024284,208.733597 135.851700,178.023239 162.866791,153.408432 
		C186.420624,131.947372 214.238541,120.227654 246.078278,117.555099 
		C315.008179,111.769310 379.053345,158.345993 393.918274,227.492691 
		C410.611359,305.143463 359.565399,382.197174 279.969055,395.033508 
		C205.073975,407.111694 137.791306,360.996918 120.290588,287.114319 
		C120.214088,286.791382 120.087006,286.480377 119.889374,285.749451 
	M206.436707,174.983505 
		C172.061691,194.772003 153.603165,239.169800 162.834671,278.395721 
		C174.964554,329.937103 226.363510,362.374756 276.137970,351.647614 
		C322.914734,341.566498 353.158478,302.007080 353.450958,256.332123 
		C353.567932,238.060318 348.526001,220.677536 338.326599,205.308716 
		C318.937744,176.093048 291.315826,161.149582 256.406342,160.555313 
		C238.777420,160.255203 222.251282,165.487411 206.436707,174.983505 
	z"/>
	<path fill="#fff" opacity="1.000000" stroke="none" d="
	M252.564697,415.829224 
		C263.604431,414.745605 272.527374,417.802185 276.713196,428.163116 
		C280.609650,437.807648 280.559509,448.105865 276.803680,457.884216 
		C273.541290,466.377838 264.021881,471.854156 255.710144,470.967987 
		C245.214264,469.848938 237.533203,462.961975 235.601837,453.112427 
		C234.532227,447.657715 234.629791,442.156921 235.088318,436.710236 
		C235.990646,425.991364 241.516068,418.794312 252.564697,415.829224 
	z"/>
	<path fill="#fff" opacity="1.000000" stroke="none" d="
	M57.046570,277.345947 
		C47.851379,273.291351 43.179436,266.207947 43.154598,256.843689 
		C43.132008,248.329361 47.003147,240.935013 55.185413,237.672638 
		C66.382034,233.208359 78.006149,233.066437 88.896805,238.912064 
		C96.284134,242.877274 100.013245,252.454178 98.110321,261.479523 
		C96.268066,270.217133 90.819603,276.176483 82.082222,278.094208 
		C73.927963,279.883911 65.583939,279.977081 57.046570,277.345947 
	z"/>
	<path fill="#fff" opacity="1.000000" stroke="none" d="
	M235.057343,64.517235 
		C236.582108,45.200226 256.075531,38.469276 268.760803,46.600044 
		C274.080444,50.009731 277.340668,54.773907 278.368713,61.062599 
		C279.450226,67.678474 279.534302,74.281441 278.352539,80.885803 
		C276.455017,91.490143 267.897552,98.414650 256.758301,98.382195 
		C246.079529,98.351082 237.558151,91.222931 235.626053,80.867165 
		C234.639496,75.579376 234.936920,70.274040 235.057343,64.517235 
	z"/>
	<path fill="#fff" opacity="1.000000" stroke="none" d="
	M442.057098,234.936478 
		C447.035614,234.844986 451.552704,234.923904 455.865143,236.357346 
		C465.368805,239.516342 471.602325,248.711365 470.816345,258.170654 
		C469.950653,268.589294 463.092651,276.499786 453.112152,278.362579 
		C446.679535,279.563171 440.194092,279.528229 433.743134,278.426819 
		C422.421387,276.493896 415.544769,268.037598 415.655609,256.286774 
		C415.757385,245.492157 423.123566,237.180862 434.138123,235.553574 
		C436.597076,235.190277 439.101440,235.134064 442.057098,234.936478 
	z"/>
	<path fill="#fff" opacity="1.000000" stroke="none" d="
	M362.678650,128.176788 
		C365.019623,113.328445 380.156921,99.479752 393.472260,99.663895 
		C402.313782,99.786163 408.868011,103.878922 412.443665,111.916046 
		C416.121460,120.182678 415.246063,128.285233 409.367004,135.317612 
		C406.067535,139.264297 402.383545,142.987198 398.415253,146.255325 
		C391.549652,151.909515 383.686920,153.139511 375.509949,149.376419 
		C366.760620,145.349915 362.619843,138.218567 362.678650,128.176788 
	z"/>
	<path fill="#fff" opacity="1.000000" stroke="none" d="
	M127.117874,100.236664 
		C140.088242,105.037552 151.470230,118.927864 151.310074,129.705338 
		C151.173615,138.887695 146.807480,145.610260 138.489471,149.384674 
		C130.154739,153.166656 122.186157,151.887939 115.222755,146.030273 
		C111.548248,142.939240 108.198250,139.415085 104.986977,135.830902 
		C98.898811,129.035751 97.791946,118.629089 102.048111,110.698273 
		C106.675941,102.074905 114.880348,98.543221 127.117874,100.236664 
	z"/>
	<path fill="#fff" opacity="1.000000" stroke="none" d="
	M131.620972,411.986542 
		C119.976173,416.741058 109.320091,414.104309 103.359367,405.262634 
		C96.945137,395.748291 98.358276,384.732574 107.127632,375.904449 
		C109.469925,373.546509 111.742249,371.112885 114.174911,368.851990 
		C123.275208,360.394073 136.722214,360.553467 145.145584,369.156036 
		C153.626343,377.817230 153.562439,391.153778 144.778564,400.046844 
		C140.709518,404.166412 137.053406,408.779266 131.620972,411.986542 
	z"/>
	<path fill="#fff" opacity="1.000000" stroke="none" d="
	M383.168884,362.687164 
		C390.326752,362.461823 395.965881,364.855865 400.638428,369.643494 
		C403.314514,372.385468 406.119873,375.007050 408.704437,377.831573 
		C416.588409,386.447357 416.401123,400.023041 408.370636,408.213684 
		C400.317261,416.427612 386.312805,416.599396 377.615540,408.521820 
		C374.931793,406.029327 372.409241,403.362946 369.818604,400.770477 
		C363.238708,394.185913 360.827881,386.394073 363.825623,377.479523 
		C366.828400,368.549988 373.425171,363.789948 383.168884,362.687164 
	z"/>
</svg>