<?xml version="1.0" encoding="utf-8"?>
<svg xmlns="http://www.w3.org/2000/svg" fill="none" viewBox="0 0 14 14" height="14" width="14" xmlns:bx="https://boxy-svg.com"><defs><bx:export><bx:file format="svg"/></bx:export></defs><g transform="matrix(1, 0, 0, 1, -0.0015, -0.025212)"><path fill="#fff" d="M 5.183 6.798 C 7.283 6.798 8.596 4.524 7.546 2.705 C 7.058 1.861 6.157 1.341 5.183 1.341 C 3.082 1.341 1.769 3.615 2.82 5.434 C 3.307 6.278 4.208 6.798 5.183 6.798 M 0.635 12.255 C 0.635 8.754 4.425 6.566 7.456 8.317 C 8.863 9.129 9.73 10.63 9.73 12.255 C 9.73 12.506 9.527 12.71 9.275 12.71 L 1.09 12.71 C 0.839 12.71 0.635 12.506 0.635 12.255" style=""/><path fill="#b6c9de" fill-rule="evenodd" d="M 10.802 12.71 L 12.913 12.71 C 13.165 12.71 13.368 12.506 13.368 12.255 C 13.368 9.657 11.195 7.587 8.6 7.713 C 10.029 8.786 10.868 10.469 10.867 12.255 C 10.867 12.414 10.845 12.566 10.802 12.71 M 8.031 6.683 C 10.042 7.288 11.955 5.49 11.474 3.445 C 11.114 1.914 9.537 1.004 8.031 1.457 C 8.686 2.17 9.049 3.102 9.048 4.07 C 9.049 5.037 8.686 5.97 8.031 6.683" clip-rule="evenodd" style=""/></g></svg>