<svg xmlns="http://www.w3.org/2000/svg" viewBox="0 0 64 64" width="64" height="64">
  <path fill="#fff" d="M32.127 59.011c-2.294 0-4.514.003-6.732-.001-1.35-.004-1.83-.49-1.83-1.857V7.426c0-1.321.486-1.816 1.789-1.817q6.771-.007 13.541 0c1.305.001 1.793.497 1.793 1.816q.003 24.864 0 49.727c0 1.365-.482 1.854-1.83 1.858-2.219.004-4.437.001-6.732.001m10.808-32.366c0-.893-.014-1.71.004-2.526.024-1.019.557-1.586 1.557-1.589q6.39-.024 12.779.001c.947.003 1.5.588 1.551 1.532.011.202.005.407.005.612v32.216c0 1.718-.4 2.119-2.112 2.119q-5.931 0-11.86-.002c-1.477-.001-1.922-.441-1.922-1.908-.002-10.126-.001-20.253-.001-30.455M7.351 59.01c-1.489-.041-1.925-.487-1.925-1.915q-.003-11.474 0-22.946c0-1.492.475-1.964 1.973-1.965q6.005-.005 12.008 0c1.442.001 1.912.476 1.912 1.937q.003 11.473 0 22.945c0 1.516-.431 1.942-1.963 1.942z"/>
</svg>
