<svg version="1.1" id="Layer_1" xmlns="http://www.w3.org/2000/svg" xmlns:xlink="http://www.w3.org/1999/xlink" x="0px" y="0px" width="100%" viewBox="0 0 512 512" enable-background="new 0 0 512 512" xml:space="preserve">
	<path fill="#fff" opacity="1.000000" stroke="none" d="
	M264.999756,439.429413 
		C250.007339,439.429108 235.514877,439.455109 221.022583,439.418701 
		C212.198196,439.396515 209.074387,436.220490 209.073639,427.289856 
		C209.064636,319.013367 209.063889,210.736893 209.075455,102.460403 
		C209.076370,93.831314 212.240051,90.594467 220.764557,90.584717 
		C250.249039,90.550995 279.733612,90.551300 309.218109,90.584518 
		C317.741302,90.594124 320.923065,93.837410 320.924042,102.451073 
		C320.936462,210.727554 320.935486,319.004028 320.926300,427.280518 
		C320.925537,436.202789 317.785980,439.396423 308.976654,439.418640 
		C294.484436,439.455200 279.992065,439.429077 264.999756,439.429413 
	z"/>
	<path fill="#fff" opacity="1.000000" stroke="none" d="
	M335.592346,228.000015 
		C335.595306,222.167969 335.502930,216.833649 335.625427,211.504288 
		C335.778381,204.848572 339.258667,201.140579 345.791443,201.119064 
		C373.618164,201.027512 401.445557,201.026184 429.272217,201.126190 
		C435.456390,201.148422 439.067291,204.967758 439.398254,211.132401 
		C439.469604,212.461899 439.425934,213.797852 439.425964,215.130829 
		C439.426880,285.281647 439.427673,355.432465 439.425995,425.583282 
		C439.425751,436.808350 436.818604,439.424622 425.635223,439.425873 
		C399.807739,439.428772 373.980225,439.436432 348.152740,439.421783 
		C338.508636,439.416321 335.601074,436.542053 335.599304,426.955231 
		C335.587189,360.803467 335.592621,294.651703 335.592346,228.000015 
	z"/>
	<path fill="#fff" opacity="1.000000" stroke="none" d="
	M103.155060,439.427826 
		C93.428741,439.163147 90.580391,436.255890 90.578094,426.916534 
		C90.565788,376.953430 90.567162,326.990326 90.577164,277.027222 
		C90.579117,267.283691 93.682114,264.196320 103.464462,264.191193 
		C129.611816,264.177551 155.759201,264.174683 181.906540,264.192261 
		C191.330734,264.198608 194.400421,267.304565 194.402725,276.845459 
		C194.414810,326.808563 194.414215,376.771667 194.402863,426.734772 
		C194.400620,436.640442 191.576843,439.420471 181.573639,439.424377 
		C155.592834,439.434570 129.612015,439.427856 103.155060,439.427826 
	z"/>
</svg>