<svg version="1.1" id="Layer_1" xmlns="http://www.w3.org/2000/svg" xmlns:xlink="http://www.w3.org/1999/xlink" x="0px" y="0px" width="100%" viewBox="0 0 512 512" enable-background="new 0 0 512 512" xml:space="preserve">
	<path fill="#fff" opacity="1.000000" stroke="none" d="
	M244.052216,66.723679 
		C254.209030,66.721291 263.874756,66.683006 273.540131,66.726845 
		C287.701416,66.791069 296.704529,74.018547 299.063202,87.738968 
		C300.498749,96.089722 301.403320,104.544151 302.206604,112.984360 
		C302.482666,115.884727 303.467407,117.539276 306.164276,118.561005 
		C310.986877,120.388069 315.765106,122.348923 320.477142,124.444473 
		C323.127441,125.623138 325.137085,125.078781 327.325897,123.325119 
		C333.304443,118.535133 339.430450,113.929268 345.493805,109.245026 
		C357.675751,99.833885 370.042694,100.496857 380.944641,111.252769 
		C388.655212,118.860023 396.330627,126.504868 403.914001,134.238586 
		C413.363373,143.875290 414.178467,157.018509 406.042328,167.813339 
		C401.030151,174.463394 395.963501,181.075851 390.762115,187.577805 
		C389.073608,189.688477 388.931793,191.392929 390.087311,193.863159 
		C392.268890,198.526901 394.070374,203.378372 395.833710,208.223175 
		C396.598724,210.325012 397.615417,211.524551 399.995148,211.800949 
		C407.920410,212.721451 415.794556,214.240997 423.739594,214.793793 
		C435.456329,215.609009 448.450623,224.701248 447.489838,240.391205 
		C446.768005,252.179001 447.372559,264.046509 447.337891,275.878357 
		C447.306427,286.614075 440.557343,295.526367 430.161774,298.221405 
		C420.949249,300.609680 411.446838,301.263397 402.017670,302.195343 
		C398.519379,302.541046 396.656830,303.877716 395.560486,307.213226 
		C394.108551,311.630585 392.325409,315.964783 390.340149,320.172211 
		C389.011292,322.988495 389.398804,325.139618 391.262695,327.487610 
		C396.233276,333.749268 401.119781,340.079865 405.938080,346.459808 
		C414.224457,357.431763 413.409882,370.653687 403.790710,380.486664 
		C396.110657,388.337372 388.348877,396.109802 380.534637,403.827118 
		C370.885437,413.356628 357.270081,414.203125 346.471100,405.981934 
		C339.975616,401.036987 333.510223,396.048706 327.147644,390.935150 
		C324.920746,389.145386 323.065857,388.836273 320.409027,390.207123 
		C316.575928,392.184845 312.535370,393.877686 308.416107,395.151184 
		C304.145294,396.471497 302.344604,398.785034 302.127319,403.381561 
		C301.703278,412.351654 300.269897,421.250732 298.285339,430.018158 
		C295.948914,440.340149 287.231110,447.300781 276.727081,447.359100 
		C264.062256,447.429413 251.396652,447.407928 238.731567,447.367920 
		C226.884811,447.330536 217.707565,439.814331 215.642639,427.981537 
		C214.071671,418.979370 212.983337,409.887268 211.903839,400.808563 
		C211.578934,398.075867 210.390320,396.757507 207.874084,395.861053 
		C203.487061,394.298218 199.091476,392.639343 194.961929,390.511475 
		C191.571823,388.764557 189.059830,389.480011 186.328140,391.661011 
		C180.081009,396.648621 173.791626,401.589478 167.388733,406.374481 
		C157.068817,414.086823 143.807220,413.221619 134.597672,404.214264 
		C126.616180,396.407959 118.773926,388.458801 110.902260,380.540802 
		C100.727074,370.305695 99.975266,357.132812 108.852966,345.834656 
		C113.791458,339.549744 118.675255,333.221832 123.626961,326.947418 
		C124.920250,325.308655 125.844177,323.868073 124.803169,321.564545 
		C122.611221,316.714172 120.622665,311.762360 118.777412,306.768402 
		C117.646095,303.706573 115.771996,302.490875 112.487190,302.199249 
		C103.381165,301.390808 94.252731,300.510620 85.328651,298.424683 
		C74.230171,295.830475 67.096252,287.371307 66.823799,275.970276 
		C66.525291,263.478943 66.521141,250.969635 66.815056,238.478195 
		C67.115997,225.687973 76.344086,216.283936 89.666542,215.026062 
		C97.628555,214.274307 105.484146,212.888245 113.398285,211.881119 
		C116.096222,211.537781 117.589073,210.449753 118.546806,208.007843 
		C120.490692,203.051575 122.479187,198.104996 124.691002,193.264877 
		C125.809502,190.817291 124.836266,189.123962 123.474007,187.363251 
		C118.580833,181.038834 113.716614,174.691574 108.775513,168.404770 
		C100.054184,157.308197 100.648666,144.179382 110.598053,134.069199 
		C118.424316,126.116440 126.374252,118.281830 134.396713,110.526588 
		C144.665390,100.599945 156.873199,99.976074 168.238754,108.677711 
		C174.454453,113.436539 180.711761,118.152176 186.731598,123.150673 
		C189.442490,125.401619 191.772293,125.690521 194.834366,124.036659 
		C197.749176,122.462341 200.822235,120.796539 204.017090,120.205566 
		C210.604294,118.987083 212.250092,114.712776 212.730850,108.890106 
		C213.277298,102.272018 214.227692,95.679382 215.210785,89.106842 
		C217.406418,74.427605 226.274124,66.812805 241.062729,66.728233 
		C241.895462,66.723473 242.728226,66.725578 244.052216,66.723679 
	M190.278534,313.216766 
		C212.211029,337.979309 239.499832,348.119415 272.210510,342.764679 
		C317.945526,335.277893 350.818115,291.304596 343.273376,243.514114 
		C336.158844,198.448578 296.136841,166.721359 250.746170,170.141541 
		C229.602814,171.734695 211.426056,179.719116 196.297653,194.396164 
		C178.550537,211.613770 169.674347,233.030869 169.622635,257.519989 
		C169.579239,278.089600 176.645920,296.648224 190.278534,313.216766 
	z"/>
</svg>