<svg version="1.1" id="Layer_1" xmlns="http://www.w3.org/2000/svg" xmlns:xlink="http://www.w3.org/1999/xlink" x="0px" y="0px"
	 width="100%" viewBox="0 0 512 512" enable-background="new 0 0 512 512" xml:space="preserve">
<path fill="#fff" opacity="1.000000" stroke="none" 
	d="
M248.432953,396.824127 
	C217.463181,394.545349 190.221970,383.967010 166.956696,364.068939 
	C137.353012,338.749908 120.853630,306.597626 117.544777,267.604614 
	C111.334709,194.422318 164.905991,128.581345 236.752640,118.558334 
	C310.376801,108.287369 378.366974,154.579910 393.701721,227.722488 
	C404.932495,281.290253 388.607666,327.016144 347.627411,363.478485 
	C326.599121,382.188507 301.573700,392.477173 273.803436,396.032471 
	C265.576752,397.085693 257.236969,397.876617 248.432953,396.824127 
M189.712631,188.217407 
	C160.948090,217.430664 152.770248,259.053680 168.707977,295.125305 
	C186.843369,336.170868 228.329376,358.761780 272.900574,351.765289 
	C293.328217,348.558716 310.605408,339.114777 325.260773,324.704285 
	C326.723053,323.266418 329.065796,321.948517 328.223450,319.391968 
	C327.440613,317.015961 324.967316,317.597412 323.075775,317.186432 
	C317.231110,315.916656 311.353821,314.753815 305.579163,313.212402 
	C277.934448,305.833221 253.557251,292.795868 234.400757,271.117126 
	C214.113220,248.158356 205.594467,220.612335 203.666046,190.600311 
	C203.425201,186.852310 203.743607,182.997406 201.306244,179.221756 
	C196.888443,181.351456 193.616959,184.622787 189.712631,188.217407 
z"/>
</svg>