<svg version="1.1" id="Layer_1" xmlns="http://www.w3.org/2000/svg" xmlns:xlink="http://www.w3.org/1999/xlink" x="0px" y="0px"
	 width="100%" viewBox="0 0 512 512" enable-background="new 0 0 512 512" xml:space="preserve">
<path fill="#fff" opacity="1.000000" stroke="none" 
	d="
M376.358948,330.258972 
	C353.984833,364.852570 323.259979,386.683502 282.933960,394.510590 
	C227.028549,405.361542 169.237808,380.309540 138.837631,332.121613 
	C123.373955,307.609833 115.794449,280.773895 117.007332,251.952423 
	C120.014816,180.486725 173.186356,127.712921 236.849396,118.474258 
	C308.371124,108.095139 378.441254,154.190079 394.045471,228.195496 
	C401.647217,264.248108 395.374451,298.263885 376.358948,330.258972 
M302.873169,172.677399 
	C281.578583,160.962860 259.028900,157.618561 235.337433,162.987137 
	C186.156982,174.131546 155.571655,221.234741 161.100800,268.463593 
	C167.343903,321.790802 218.376953,361.141449 271.487213,352.511230 
	C324.930603,343.826904 357.004211,294.691040 351.823029,247.538910 
	C348.200470,214.571075 331.819946,189.957199 302.873169,172.677399 
z"/>
<path fill="#fff" opacity="1.000000" stroke="none" 
	d="
M240.609741,422.679199 
	C247.299911,415.788055 255.120804,414.044861 263.750732,416.598419 
	C272.885437,419.301300 277.502472,425.960632 278.674469,435.248199 
	C279.344849,440.560608 279.507050,445.891907 278.703552,451.164246 
	C276.881683,463.119019 267.708740,471.304810 256.724396,471.050995 
	C245.599747,470.793945 236.796082,463.043793 235.381454,451.124969 
	C234.226593,441.394562 233.533615,431.418915 240.609741,422.679199 
z"/>
<path fill="#fff" opacity="1.000000" stroke="none" 
	d="
M57.046551,277.345947 
	C47.850208,273.292419 43.179688,266.208740 43.154408,256.844299 
	C43.131420,248.329361 47.003101,240.935745 55.184765,237.673019 
	C66.381233,233.208023 78.005379,233.066559 88.896240,238.911713 
	C96.282013,242.875687 100.012627,252.456009 98.110451,261.479279 
	C96.268387,270.217346 90.819145,276.175995 82.082230,278.094025 
	C73.928062,279.884186 65.583939,279.977081 57.046551,277.345947 
z"/>
<path fill="#fff" opacity="1.000000" stroke="none" 
	d="
M278.605743,62.768242 
	C279.349670,68.997871 279.438110,74.779816 278.400879,80.563049 
	C276.465240,91.355614 268.148285,98.347214 257.083252,98.382622 
	C246.079269,98.417824 237.467514,91.332878 235.638367,80.686172 
	C234.561035,74.415375 234.551636,68.132584 235.543793,61.840870 
	C237.295914,50.729771 246.461639,42.789749 257.250610,43.080921 
	C268.479889,43.383976 276.975342,51.083881 278.605743,62.768242 
z"/>
<path fill="#fff" opacity="1.000000" stroke="none" 
	d="
M421.133453,271.814240 
	C414.935486,264.088287 413.753998,255.898956 417.760193,247.282700 
	C421.786865,238.622360 429.356293,235.330612 438.427094,235.000320 
	C443.066833,234.831390 447.711670,234.770996 452.353027,235.549454 
	C461.203369,237.033890 468.319214,243.301208 470.170868,251.556793 
	C472.209076,260.644104 468.824432,269.814423 461.557343,274.894012 
	C451.458374,281.953094 430.491089,280.488586 421.133453,271.814240 
z"/>
<path fill="#fff" opacity="1.000000" stroke="none" 
	d="
M412.293091,130.904663 
	C408.093201,137.897003 402.539307,143.257019 396.381378,147.705612 
	C387.491425,154.127869 375.122833,152.115372 367.972778,143.873459 
	C360.834625,135.645264 360.756012,123.387749 368.030884,115.109947 
	C371.205536,111.497643 374.649689,108.079239 378.262207,104.903519 
	C386.119385,97.996391 397.487366,97.613396 405.915222,103.712715 
	C414.008179,109.569664 416.524536,119.912804 412.293091,130.904663 
z"/>
<path fill="#fff" opacity="1.000000" stroke="none" 
	d="
M121.900803,99.651787 
	C122.684639,99.656876 123.018608,99.640076 123.348953,99.667305 
	C139.397873,100.989960 154.966370,122.126259 150.306854,136.262131 
	C145.285263,151.496399 126.500549,156.450760 114.687256,145.596802 
	C111.509109,142.676743 108.415245,139.637222 105.535439,136.425873 
	C99.169090,129.326599 97.659531,121.079758 101.355881,112.374451 
	C105.025253,103.732666 111.971367,99.503433 121.900803,99.651787 
z"/>
<path fill="#fff" opacity="1.000000" stroke="none" 
	d="
M109.178391,411.038452 
	C96.921707,401.163788 96.094696,387.039581 106.843399,376.179962 
	C109.415527,373.581360 111.911430,370.894409 114.625534,368.451569 
	C123.623886,360.352478 136.982803,360.738403 145.223465,369.234711 
	C153.510162,377.778473 153.462479,391.006012 145.071213,399.799286 
	C142.662094,402.323883 140.161331,404.762024 137.673798,407.210571 
	C129.319992,415.433563 119.928146,416.769928 109.178391,411.038452 
z"/>
<path fill="#fff" opacity="1.000000" stroke="none" 
	d="
M411.427307,404.173706 
	C402.285217,416.861542 387.309998,418.090637 376.382996,407.342499 
	C373.776093,404.778290 371.131134,402.243835 368.659637,399.552490 
	C360.441925,390.603912 360.634460,377.232910 369.022308,368.946289 
	C377.441864,360.628479 390.792450,360.498688 399.643097,368.714417 
	C402.199707,371.087616 404.618011,373.611786 407.064240,376.101624 
	C415.220581,384.403503 416.684540,393.370789 411.427307,404.173706 
z"/>
</svg>