<svg version="1.1" id="Layer_1" xmlns="http://www.w3.org/2000/svg" xmlns:xlink="http://www.w3.org/1999/xlink" x="0px" y="0px" width="100%" viewBox="0 0 512 512" enable-background="new 0 0 512 512" xml:space="preserve">
<path fill="#fff" opacity="1.000000" stroke="none" d="
M443.000000,513.000000 
	C320.312439,513.000000 197.624878,513.000000 74.351181,512.630249 
	C72.632172,512.093201 71.399422,512.159302 70.381516,511.723511 
	C56.437313,505.753693 47.047363,494.160461 47.030113,477.880798 
	C46.958454,410.262634 46.979935,342.644348 47.043087,275.026184 
	C47.047512,270.287537 47.185390,265.454559 48.095299,260.829529 
	C50.479294,248.711746 57.538227,239.871109 69.312737,236.163315 
	C77.079247,233.717606 85.452965,233.200180 94.000000,231.743484 
	C94.000000,223.733078 93.768738,214.932968 94.044777,206.148773 
	C94.777336,182.836914 92.123268,159.446411 95.950516,136.199127 
	C98.182060,122.644417 101.764572,109.496719 107.516022,97.067535 
	C119.448105,71.281654 137.251801,50.082256 159.723740,32.884174 
	C176.331451,20.174084 194.530869,10.465543 215.198425,5.943974 
	C222.159637,4.421027 229.067657,2.654954 236.000000,1.000000 
	C249.687561,1.000000 263.375122,1.000000 277.672943,1.389745 
	C288.770782,4.189874 299.437500,6.010558 309.709351,9.131065 
	C332.420807,16.030628 351.737946,28.925579 368.615753,45.323898 
	C376.353271,52.841534 383.462799,61.128143 390.041748,69.692375 
	C409.105896,94.509483 418.777283,122.989914 419.831726,154.059448 
	C420.667419,178.684250 420.000000,203.360046 420.000000,228.013199 
	C420.000000,229.609634 420.000000,231.206070 420.000000,232.465866 
	C425.988831,233.013397 431.369537,233.490143 436.747131,233.999786 
	C454.289764,235.662323 466.864532,250.627655 466.914886,267.925232 
	C467.119476,338.219452 467.070190,408.514740 466.912476,478.809204 
	C466.892426,487.744110 464.179413,496.149750 457.120483,502.271393 
	C452.663940,506.136200 447.723419,509.442932 443.000000,513.000000 
M319.995026,96.492851 
	C316.619965,93.657990 313.435852,90.550285 309.838440,88.033203 
	C288.770721,73.292282 265.479858,68.543320 240.240814,73.000534 
	C210.686050,78.219902 189.833206,95.406876 175.053452,120.743683 
	C166.735550,135.003006 164.471893,150.902313 164.111191,166.994049 
	C163.652100,187.474548 163.995712,207.973129 164.009216,228.463913 
	C164.010162,229.902252 164.142929,231.340500 164.212936,232.749573 
	C226.270233,232.749573 287.989136,232.749573 349.999603,232.749573 
	C349.999603,209.875977 350.176575,187.249329 349.892090,164.628510 
	C349.806396,157.815887 348.975922,150.904709 347.554443,144.237427 
	C343.596680,125.673912 334.329346,109.987534 319.995026,96.492851 
z"/>
</svg>